<mxfile host="Electron" modified="2024-11-21T17:48:12.113Z" agent="Mozilla/5.0 (X11; Linux x86_64) AppleWebKit/537.36 (KHTML, like Gecko) draw.io/21.6.5 Chrome/114.0.5735.243 Electron/25.3.1 Safari/537.36" etag="iN1I4AV1LZ8FfktqtYSh" version="21.6.5" type="device">
  <diagram name="Page-1" id="l2YeYNKZNRmyEFJVFDeX">
    <mxGraphModel dx="382" dy="523" grid="1" gridSize="10" guides="1" tooltips="1" connect="1" arrows="1" fold="1" page="1" pageScale="1" pageWidth="827" pageHeight="1169" math="0" shadow="0">
      <root>
        <mxCell id="0" />
        <mxCell id="1" parent="0" />
        <mxCell id="F5BHP4as5XQNbplAumEu-1" value="FIZZ_BUZZ" style="rounded=0;whiteSpace=wrap;html=1;fillColor=#fff2cc;strokeColor=#d6b656;" vertex="1" parent="1">
          <mxGeometry x="320" y="540" width="80" height="20" as="geometry" />
        </mxCell>
        <mxCell id="F5BHP4as5XQNbplAumEu-2" value="1" style="rounded=0;whiteSpace=wrap;html=1;fillColor=#fff2cc;strokeColor=#d6b656;" vertex="1" parent="1">
          <mxGeometry x="320" y="520" width="80" height="20" as="geometry" />
        </mxCell>
        <mxCell id="F5BHP4as5XQNbplAumEu-3" value="2" style="rounded=0;whiteSpace=wrap;html=1;fillColor=#fff2cc;strokeColor=#d6b656;" vertex="1" parent="1">
          <mxGeometry x="320" y="500" width="80" height="20" as="geometry" />
        </mxCell>
        <mxCell id="F5BHP4as5XQNbplAumEu-4" value="FIZZ" style="rounded=0;whiteSpace=wrap;html=1;fillColor=#fff2cc;strokeColor=#d6b656;" vertex="1" parent="1">
          <mxGeometry x="320" y="480" width="80" height="20" as="geometry" />
        </mxCell>
        <mxCell id="F5BHP4as5XQNbplAumEu-5" value="4" style="rounded=0;whiteSpace=wrap;html=1;fillColor=#fff2cc;strokeColor=#d6b656;" vertex="1" parent="1">
          <mxGeometry x="320" y="460" width="80" height="20" as="geometry" />
        </mxCell>
        <mxCell id="F5BHP4as5XQNbplAumEu-6" value="BUZZ" style="rounded=0;whiteSpace=wrap;html=1;fillColor=#fff2cc;strokeColor=#d6b656;" vertex="1" parent="1">
          <mxGeometry x="320" y="440" width="80" height="20" as="geometry" />
        </mxCell>
        <mxCell id="F5BHP4as5XQNbplAumEu-7" value="FIZZ" style="rounded=0;whiteSpace=wrap;html=1;fillColor=#fff2cc;strokeColor=#d6b656;" vertex="1" parent="1">
          <mxGeometry x="320" y="420" width="80" height="20" as="geometry" />
        </mxCell>
        <mxCell id="F5BHP4as5XQNbplAumEu-8" value="...." style="rounded=0;whiteSpace=wrap;html=1;fillColor=#fff2cc;strokeColor=#d6b656;" vertex="1" parent="1">
          <mxGeometry x="320" y="400" width="80" height="20" as="geometry" />
        </mxCell>
        <mxCell id="F5BHP4as5XQNbplAumEu-9" value="" style="endArrow=none;html=1;rounded=0;" edge="1" parent="1">
          <mxGeometry width="50" height="50" relative="1" as="geometry">
            <mxPoint x="280" y="580" as="sourcePoint" />
            <mxPoint x="360" y="560" as="targetPoint" />
            <Array as="points">
              <mxPoint x="360" y="580" />
            </Array>
          </mxGeometry>
        </mxCell>
        <mxCell id="F5BHP4as5XQNbplAumEu-10" value="" style="endArrow=none;html=1;rounded=0;exitX=0;exitY=1;exitDx=0;exitDy=0;" edge="1" parent="1">
          <mxGeometry width="50" height="50" relative="1" as="geometry">
            <mxPoint x="440" y="480" as="sourcePoint" />
            <mxPoint x="400" y="480" as="targetPoint" />
          </mxGeometry>
        </mxCell>
        <mxCell id="F5BHP4as5XQNbplAumEu-11" value="addr" style="text;html=1;strokeColor=none;fillColor=none;align=center;verticalAlign=middle;whiteSpace=wrap;rounded=0;" vertex="1" parent="1">
          <mxGeometry x="360" y="560" width="40" height="20" as="geometry" />
        </mxCell>
        <mxCell id="F5BHP4as5XQNbplAumEu-12" value="addr" style="text;html=1;strokeColor=none;fillColor=none;align=center;verticalAlign=middle;whiteSpace=wrap;rounded=0;" vertex="1" parent="1">
          <mxGeometry x="360" y="560" width="40" height="20" as="geometry" />
        </mxCell>
        <mxCell id="F5BHP4as5XQNbplAumEu-13" value="v" style="text;html=1;strokeColor=none;fillColor=none;align=right;verticalAlign=middle;whiteSpace=wrap;rounded=0;" vertex="1" parent="1">
          <mxGeometry x="240" y="570" width="40" height="20" as="geometry" />
        </mxCell>
        <mxCell id="F5BHP4as5XQNbplAumEu-14" value="fb" style="text;html=1;strokeColor=none;fillColor=none;align=left;verticalAlign=middle;whiteSpace=wrap;rounded=0;" vertex="1" parent="1">
          <mxGeometry x="440" y="470" width="40" height="20" as="geometry" />
        </mxCell>
        <mxCell id="F5BHP4as5XQNbplAumEu-15" value="lut" style="text;html=1;strokeColor=none;fillColor=none;align=center;verticalAlign=middle;whiteSpace=wrap;rounded=0;" vertex="1" parent="1">
          <mxGeometry x="340" y="380" width="40" height="20" as="geometry" />
        </mxCell>
      </root>
    </mxGraphModel>
  </diagram>
</mxfile>
